# xmcd CD database file
#
# Track frame offsets:
#	150
#	27945
#	61530
#	82919
#	117405
#	151605
#	169151
#	205780
#	241784
#
# Disc length: 3631 seconds
#
# Revision: 1
# Processed by: cddbd v1.5.1PL0 Copyright (c) Steve Scherf et al.
# Submitted via: CDex 1.51
#
DISCID=5d0e2d09
DTITLE=Baldo Martinez - Zona Acustica I
DYEAR=2003
DGENRE=Jazz
TTITLE0=Pais de ningures
TTITLE1=Timonel de nieblas
TTITLE2=Canta a Rula
TTITLE3=Lluvia del tiempo
TTITLE4=Platypus
TTITLE5=Llettre pour Beatrice
TTITLE6=Suite del Miño
TTITLE7=Punto de encuentro
TTITLE8=Zona rustica
EXTD=YEAR: 2003
EXTT0=
EXTT1=
EXTT2=
EXTT3=
EXTT4=
EXTT5=
EXTT6=
EXTT7=
EXTT8=
PLAYORDER=
